<svg xmlns="http://www.w3.org/2000/svg" width="297.69" height="78.47" viewBox="0 0 297.69 78.47"><title>CollectorGemsLogo</title><g id="e964be4d-caea-4958-90ac-a03277ae097c" data-name="Layer 2"><text transform="translate(0 60.47)" font-size="72" fill="#1a5c2e" font-family="MyriadPro-Regular, Myriad Pro">C</text></g><g id="a072ecaa-a64f-4344-902c-6ac173107820" data-name="Layer 1"><text transform="matrix(-1, 0, 0, 1, 77.16, 60.26)" font-size="72" fill="#3d57a7" font-family="MyriadPro-Regular, Myriad Pro">G</text></g><g id="6a4a22dd-6b2d-47f5-afdf-58b6bb59a79f" data-name="Layer 3"><path d="M78.77,26.58c0-6.35,3.63-10.22,8.47-10.22a7,7,0,0,1,5.26,2.43l-1.34,1.63a5.1,5.1,0,0,0-3.87-1.86c-3.61,0-6,3.05-6,8s2.29,8.06,5.91,8.06a5.67,5.67,0,0,0,4.43-2.22L93,33.93a7.3,7.3,0,0,1-5.86,2.84C82.33,36.77,78.77,33,78.77,26.58Z" transform="translate(0.14 11.21)" fill="#3d57a7"/><path d="M94.54,26.49c0-6.3,3.36-10.13,8.16-10.13s8.16,3.84,8.16,10.13-3.36,10.28-8.16,10.28S94.54,32.8,94.54,26.49Zm13.81,0c0-4.9-2.24-7.93-5.65-7.93s-5.65,3-5.65,7.93,2.24,8.08,5.65,8.08S108.35,31.4,108.35,26.49Z" transform="translate(0.14 11.21)" fill="#3d57a7"/><path d="M115,16.72h2.43V34.29h8.33v2.12H115Z" transform="translate(0.14 11.21)" fill="#3d57a7"/><path d="M129.11,16.72h2.43V34.29h8.34v2.12H129.11Z" transform="translate(0.14 11.21)" fill="#3d57a7"/><path d="M143.25,16.72h11v2.12h-8.58V25h7.24v2.12h-7.24v7.16h8.87v2.12h-11.3Z" transform="translate(0.14 11.21)" fill="#3d57a7"/><path d="M157.48,26.58c0-6.35,3.63-10.22,8.47-10.22a7,7,0,0,1,5.26,2.43l-1.34,1.63A5.1,5.1,0,0,0,166,18.56c-3.61,0-6,3.05-6,8s2.29,8.06,5.91,8.06a5.67,5.67,0,0,0,4.43-2.22l1.33,1.58a7.3,7.3,0,0,1-5.86,2.84C161,36.77,157.48,33,157.48,26.58Z" transform="translate(0.14 11.21)" fill="#3d57a7"/><path d="M178.65,18.84h-5.77V16.72h14v2.12h-5.78V36.41h-2.43Z" transform="translate(0.14 11.21)" fill="#3d57a7"/><path d="M188.47,26.49c0-6.3,3.37-10.13,8.17-10.13s8.16,3.84,8.16,10.13-3.37,10.28-8.16,10.28S188.47,32.8,188.47,26.49Zm13.82,0c0-4.9-2.24-7.93-5.65-7.93s-5.66,3-5.66,7.93,2.25,8.08,5.66,8.08S202.29,31.4,202.29,26.49Z" transform="translate(0.14 11.21)" fill="#3d57a7"/><path d="M208.91,16.72h6c3.89,0,6.69,1.44,6.69,5.54,0,3.93-2.8,5.83-6.69,5.83h-3.55v8.32h-2.43Zm5.63,9.33c3,0,4.61-1.24,4.61-3.79s-1.63-3.51-4.61-3.51h-3.2v7.3Zm-.12,1.35,1.9-1.3,5.83,10.31h-2.76Z" transform="translate(0.14 11.21)" fill="#3d57a7"/><path d="M230.19,26.58c0-6.35,3.71-10.22,8.77-10.22a7.32,7.32,0,0,1,5.51,2.43l-1.34,1.63A5.31,5.31,0,0,0,239,18.56c-3.84,0-6.32,3.05-6.32,8s2.27,8.06,6.35,8.06a5.08,5.08,0,0,0,3.44-1.16V28.28h-4.05V26.21h6.27v8.27a8,8,0,0,1-5.89,2.29C233.78,36.77,230.19,33,230.19,26.58Z" transform="translate(0.14 11.21)" fill="#3d57a7"/><path d="M249.26,16.72h11v2.12h-8.57V25h7.23v2.12h-7.23v7.16h8.87v2.12h-11.3Z" transform="translate(0.14 11.21)" fill="#3d57a7"/><path d="M264.59,16.72h2.93l3.66,10.52c.46,1.34.9,2.73,1.36,4.1h.11c.46-1.37.86-2.76,1.32-4.1l3.62-10.52h2.93V36.41h-2.26V25.57c0-1.72.19-4.08.31-5.82h-.12l-1.51,4.49-3.6,10.18h-1.61l-3.62-10.18-1.51-4.49h-.12c.13,1.74.31,4.1.31,5.82V36.41h-2.2Z" transform="translate(0.14 11.21)" fill="#3d57a7"/><path d="M284.36,33.85l1.45-1.72a7.37,7.37,0,0,0,5.27,2.44c2.51,0,4-1.29,4-3.2s-1.38-2.66-3.18-3.47l-2.75-1.25c-1.78-.78-3.86-2.17-3.86-5.07s2.54-5.22,6-5.22a7.76,7.76,0,0,1,5.62,2.44l-1.29,1.61a6,6,0,0,0-4.33-1.85c-2.14,0-3.56,1.12-3.56,2.88s1.66,2.6,3.16,3.25l2.72,1.22c2.21,1,3.94,2.34,3.94,5.26,0,3.11-2.5,5.6-6.51,5.6A9,9,0,0,1,284.36,33.85Z" transform="translate(0.14 11.21)" fill="#3d57a7"/></g></svg>