<svg id="57bc59b1-8419-4d96-a55e-7b202b411a5c" data-name="Layer 1" xmlns="http://www.w3.org/2000/svg" width="297.69" height="78.47" viewBox="0 0 297.69 78.47"><title>CG</title><g id="a1e885fb-6715-4114-9d3e-a6a5e6573b4c" data-name="e964be4d-caea-4958-90ac-a03277ae097c"><text transform="translate(0 63.53)" font-size="72" fill="#1a5c2e" font-family="MyriadPro-Regular, Myriad Pro" style="isolation:isolate">C</text></g><g id="a0ca8a88-6664-4780-9bd2-f8fd76a6dafa" data-name="a072ecaa-a64f-4344-902c-6ac173107820"><text transform="matrix(-1, 0, 0, 1, 77.16, 63.63)" font-size="72.5" fill="#3d57a7" font-family="MyriadPro-Regular, Myriad Pro" style="isolation:isolate">G</text></g><g id="42b06ec8-0af1-421d-aff1-86c52992b453" data-name="6a4a22dd-6b2d-47f5-afdf-58b6bb59a79f"><path d="M78.91,39.22c0-6.35,3.63-10.22,8.47-10.22a7,7,0,0,1,5.26,2.43L91.3,33.06a5.16,5.16,0,0,0-3.87-1.86c-3.61,0-6,3.05-6,8s2.29,8.06,5.91,8.06A5.64,5.64,0,0,0,91.77,45l1.37,1.53a7.27,7.27,0,0,1-5.86,2.84C82.47,49.41,78.91,45.64,78.91,39.22Z" fill="#3d57a7"/><path d="M94.68,39.13C94.68,32.83,98,29,102.84,29S111,32.84,111,39.13s-3.36,10.28-8.16,10.28S94.68,45.44,94.68,39.13Zm13.81,0c0-4.9-2.24-7.93-5.65-7.93s-5.65,3-5.65,7.93,2.24,8.08,5.65,8.08S108.49,44,108.49,39.13Z" fill="#3d57a7"/><path d="M115.14,29.36h2.43V46.93h8.33v2.12H115.14Z" fill="#3d57a7"/><path d="M129.25,29.36h2.43V46.93H140v2.12H129.25Z" fill="#3d57a7"/><path d="M143.39,29.36h11v2.12h-8.58v6.16h7.24v2.12h-7.24v7.16h8.87V49h-11.3Z" fill="#3d57a7"/><path d="M157.62,39.22c0-6.35,3.63-10.22,8.47-10.22a7,7,0,0,1,5.26,2.43L170,33.06a5.16,5.16,0,0,0-3.87-1.86c-3.61,0-6,3.05-6,8s2.29,8.06,5.91,8.06A5.64,5.64,0,0,0,170.48,45l1.33,1.58A7.27,7.27,0,0,1,166,49.46C161.14,49.41,157.62,45.64,157.62,39.22Z" fill="#3d57a7"/><path d="M178.79,31.48H173V29.36h14v2.12h-5.78V49.05h-2.43Z" fill="#3d57a7"/><path d="M188.61,39.13c0-6.3,3.37-10.13,8.17-10.13s8.16,3.84,8.16,10.13-3.37,10.28-8.16,10.28S188.61,45.44,188.61,39.13Zm13.82,0c0-4.9-2.24-7.93-5.65-7.93s-5.66,3-5.66,7.93,2.25,8.08,5.66,8.08,5.65-3.17,5.65-8.08Z" fill="#3d57a7"/><path d="M209.05,29.36h6c3.89,0,6.69,1.44,6.69,5.54,0,3.93-2.8,5.83-6.69,5.83H211.5v8.32h-2.43Zm5.63,9.33c3,0,4.61-1.24,4.61-3.79s-1.63-3.51-4.61-3.51h-3.2v7.3ZM214.56,40l1.9-1.3,5.83,10.31h-2.76Z" fill="#3d57a7"/><path d="M230.33,39.22C230.33,32.87,234,29,239.1,29a7.35,7.35,0,0,1,5.51,2.43l-1.34,1.63a5.35,5.35,0,0,0-4.13-1.86c-3.84,0-6.32,3.05-6.32,8s2.27,8.06,6.35,8.06a5,5,0,0,0,3.44-1.16V40.92h-4.05V38.85h6.27v8.27a8,8,0,0,1-5.89,2.29C233.92,49.41,230.33,45.64,230.33,39.22Z" fill="#3d57a7"/><path d="M249.4,29.36h11v2.12h-8.57v6.16h7.23v2.12h-7.23v7.16h8.87V49H249.4Z" fill="#3d57a7"/><path d="M264.73,29.36h2.93l3.66,10.52c.46,1.34.9,2.73,1.36,4.1h.11c.46-1.37.86-2.76,1.32-4.1l3.62-10.52h2.93V49.05H278.4V38.21c0-1.72.19-4.08.31-5.82h-.12l-1.51,4.49-3.6,10.18h-1.61l-3.62-10.18-1.51-4.49h-.12c.13,1.74.31,4.1.31,5.82V49.05h-2.2Z" fill="#3d57a7"/><path d="M284.5,46.49,286,44.77a7.3,7.3,0,0,0,5.27,2.44c2.51,0,4-1.29,4-3.2s-1.38-2.66-3.18-3.47l-2.75-1.25c-1.78-.78-3.86-2.17-3.86-5.07S288,29,291.43,29a7.8,7.8,0,0,1,5.62,2.44l-1.29,1.61a6,6,0,0,0-4.33-1.85c-2.14,0-3.56,1.12-3.56,2.88s1.66,2.6,3.16,3.25l2.72,1.22c2.21,1,3.94,2.34,3.94,5.26,0,3.11-2.5,5.6-6.51,5.6A9,9,0,0,1,284.5,46.49Z" fill="#3d57a7"/></g></svg>